<?xml version="1.0" encoding="UTF-8" standalone="no"?>
<svg
   width="1707px"
   height="1580px"
   viewBox="0 0 639 592"
   version="1.1"
   id="svg1"
   sodipodi:docname="butterfly.svg"
   inkscape:version="1.3.1 (91b66b0783, 2023-11-16)"
   xmlns:inkscape="http://www.inkscape.org/namespaces/inkscape"
   xmlns:sodipodi="http://sodipodi.sourceforge.net/DTD/sodipodi-0.dtd"
   xmlns="http://www.w3.org/2000/svg"
   xmlns:svg="http://www.w3.org/2000/svg">
  <defs
     id="defs1" />
  <sodipodi:namedview
     id="namedview1"
     pagecolor="#ffffff"
     bordercolor="#000000"
     borderopacity="0.25"
     inkscape:showpageshadow="2"
     inkscape:pageopacity="0.0"
     inkscape:pagecheckerboard="0"
     inkscape:deskcolor="#d1d1d1"
     inkscape:zoom="0.66265823"
     inkscape:cx="854.13562"
     inkscape:cy="790"
     inkscape:window-width="2400"
     inkscape:window-height="1261"
     inkscape:window-x="-9"
     inkscape:window-y="172"
     inkscape:window-maximized="1"
     inkscape:current-layer="svg1" />
  <g
     id="surface1"
     transform="matrix(0.11650309,0,0,0.12658114,253.87584,249.38652)">
    <path
       style="fill:#000000;fill-opacity:1;fill-rule:nonzero;stroke:none"
       d="m 525.67578,0.800781 c -12.48047,3.347657 -35.94141,13.089844 -50.07031,20.785157 -7.28906,3.996093 -8.1875,4.597656 -11.4336,8.144531 -5.58984,6.09375 -24.55859,34.078125 -41.48437,61.207031 -2.99609,4.796875 -7.4375,11.79297 -9.83203,15.49219 -4.94531,7.64453 -11.58203,19.43359 -14.52735,25.83203 -2.79687,6.04297 -8.03906,22.88281 -17.67187,56.85937 -9.33594,32.98047 -16.77734,60.71094 -20.07031,74.80078 -2.09766,8.79297 -1.84766,8.54297 -6.14063,7.44532 -0.94922,-0.25 -3.49609,-0.75 -5.58984,-1.10157 l -3.84375,-0.64843 -0.25,-2.4961 c -0.15235,-1.40234 -0.64844,-9.09375 -1.05078,-17.03906 -1.14844,-21.08594 -3.54297,-59.41016 -4.99219,-78.69922 -0.69922,-9.1914 -1.34766,-18.63672 -1.54688,-20.98437 -0.34765,-5.09766 -3.09375,-34.77735 -3.49218,-37.97266 -0.75,-5.59765 -1.75,-10.69531 -2.25,-11.29297 -0.7461,-0.90234 -3.49219,-1.398435 -5.39063,-0.94922 -2.89453,0.64844 -5.89062,4.19532 -4.04297,4.84375 0.59766,0.20313 2.7461,15.49219 3.44532,24.63672 0.30078,3.54688 0.99609,11.98828 1.54687,18.73438 3.54297,44.07031 5.44141,75.15234 5.83984,96.6875 l 0.25,16.48828 -1.64843,1.59765 c -2.4961,2.29688 -5.19141,3.64844 -7.4375,3.64844 -2.4961,0 -9.9336,-2.25 -26.70703,-8.14453 -22.16407,-7.79687 -34.7461,-12.44141 -47.92579,-17.73828 -11.92968,-4.74609 -15.92578,-6.49609 -35.84375,-15.48828 -9.58593,-4.34766 -24.41015,-12.09375 -26.10937,-13.64063 -0.54688,-0.5 -1.14844,-0.94922 -1.29688,-0.94922 -0.44921,0 -1.39843,4.29688 -1.39843,6.44532 0,4.09765 0.59765,4.64453 13.23047,11.53906 10.48437,5.74609 15.625,8.19531 33.59765,15.94141 19.11719,8.19531 40.6836,15.1875 72.23438,23.28515 7.53906,1.94531 9.33593,2.59766 15.97656,6.04297 4.14453,2.10156 7.58594,3.89844 7.6875,4 0.10156,0.0977 -0.19922,2.24609 -0.59766,4.79688 -0.44922,2.54687 -0.94922,5.54687 -1.09765,6.64453 -0.15235,1.09765 -0.45313,2.29687 -0.69922,2.64843 -0.30078,0.5 -4.99219,-0.55078 -20.07031,-4.34765 -23.61329,-5.9961 -29.65235,-7.39453 -53.61719,-12.24219 -28.25391,-5.74609 -57.50781,-10.29297 -79.875,-12.39062 -8.6836,-0.80079 -38.6875,-0.80079 -48.42188,0 -17.57421,1.5 -41.484371,6.44531 -55.414059,11.54296 -2.195312,0.79688 -6.242187,2.29688 -8.984375,3.29688 -12.433594,4.49609 -32.949218,15.73828 -43.984375,24.03516 C 4.09375,310.03906 0,316.83594 0,326.53125 c 0,4.84375 2.644531,13.08984 5.839844,18.33594 9.285156,15.08984 28.308594,32.32812 47.425781,42.97265 4.742187,2.64453 8.738281,4.4961 11.082031,5.14453 4.34375,1.14844 5.144532,2 7.9375,8.34375 4.246094,9.39454 7.039063,11.84375 15.578125,13.64063 2.34375,0.44922 4.640625,1.05078 5.089844,1.30078 0.449219,0.25 1.300781,1.74609 1.898437,3.29688 6.589848,17.73828 11.132818,25.88281 18.871098,33.77734 6.9375,7.09375 13.1289,10.44141 22.26562,12.08984 5.69141,1.05078 15.72266,0.80078 22.26563,-0.54687 10.38281,-2.14844 24.41015,-7.14453 35.4414,-12.69141 6.09375,-3.04687 7.64063,-3.14844 7.9375,-0.5 0.20313,2.14844 -0.64844,8.34375 -2.19531,16.23828 -2.79688,13.99219 -3.44531,30.82813 -1.49609,39.72266 1.84765,8.34375 4.6914,14.94141 8.98437,20.73828 3.09375,4.14453 14.02734,15.1875 17.22266,17.38672 1.25,0.84766 4.34375,3.14844 6.89062,5.14844 4.89063,3.89453 16.57422,11.08984 26.0586,16.08593 11.58203,6.09766 29.95312,13.39063 41.83593,16.58985 3.89063,1.09765 7.28907,2.04687 7.53516,2.19922 0.44922,0.30078 8.83594,2.04687 18.02344,3.79687 16.67578,3.19922 37.58984,3.2461 51.41797,0.19922 7.9375,-1.79687 17.77343,-6.09375 23.21484,-10.29297 5.54297,-4.19531 12.13281,-13.28906 17.87109,-24.68359 10.33594,-20.4336 13.33203,-38.52344 9.78516,-59.8086 -2.04688,-12.74218 -4.64063,-20.13671 -11.92969,-34.625 -3.49609,-6.84765 -7.08984,-13.09375 -10.38281,-17.9414 -2.79688,-4.04688 -5.09375,-7.24219 -5.09375,-7.09375 0,0.19922 1.54687,9.64453 3.49609,21.03515 4.89063,29.28125 5.58985,36.97657 4.44141,49.91797 l -0.59766,6.39453 -1.39843,-1.34765 c -3.4961,-3.34766 -7.1875,-11.29297 -9.6836,-20.73828 -3.04687,-11.64063 -4.34375,-23.53125 -5.24219,-48.66407 -0.5,-14.24218 -2.09765,-37.22656 -2.99609,-44.22265 -0.25,-1.79688 -0.89844,-5.39453 -1.44922,-7.99219 -0.54687,-2.60156 -0.94922,-4.79687 -0.89844,-4.84766 0.0508,-0.0508 1.89844,1.5 4.09375,3.4961 2.19532,1.94922 6.14063,5.09765 8.73829,7.04687 6.1875,4.54688 11.28125,9.49219 15.57421,15.03907 1.94532,2.44921 3.79297,4.64843 4.14454,4.89843 0.39843,0.19922 3.09375,3.09766 6.03906,6.44532 10.63281,12.08984 17.87109,25.17968 24.96094,45.26953 3.59375,10.1914 4.64453,13.89062 8.38671,30.1289 1.7461,7.59375 3.59375,14.39063 4.04297,15.14063 2,3.04687 6.14063,0.59765 8.13672,-4.84766 3.19531,-8.49609 2.44922,-18.23828 -2.49609,-33.07812 -2.19531,-6.54688 -7.48828,-19.4375 -9.58203,-23.33594 -0.64844,-1.19922 -3.2461,-6.09375 -5.79297,-10.89063 -5.83985,-10.99218 -12.53125,-22.53515 -17.3711,-29.98046 -3.89453,-5.9961 -19.07031,-26.48047 -21.76562,-29.42969 l -1.54688,-1.64844 1.7461,0.84766 c 0.94922,0.5 13.67969,8.29687 28.20703,17.39062 42.63281,26.53125 48.57031,30.07813 61.90234,36.77344 10.6836,5.39844 15.125,6.44531 30.69922,7.29687 6.24219,0.34766 14.77735,1.34766 21.46875,2.4961 5.83985,1 11.78125,0.94922 17.72266,-0.19922 6.78906,-1.34766 9.73437,-2.39844 15.47265,-5.54688 10.6836,-5.94531 17.32422,-13.53906 24.91407,-28.48046 8.28515,-16.28907 14.97656,-35.625 19.71875,-57.21094 5.08984,-23.1836 7.23828,-44.91797 6.08984,-63.00781 -0.84766,-14.39063 -2.64453,-22.58594 -7.23828,-33.47657 -7.28906,-17.33984 -17.52344,-28.28125 -31.25,-33.47656 -9.1875,-3.44922 -10.03516,-3.84766 -10.73438,-4.84766 -0.84765,-1.19921 -0.5,-2 2.2461,-5.34765 4.99219,-6.14453 10.63281,-18.58594 12.8789,-28.23047 4.74219,-20.73438 1.59766,-39.37109 -10.08203,-59.71094 -4.84375,-8.49218 -11.28515,-22.63281 -11.53515,-25.38281 -0.14844,-2.046875 -1.2461,-7.441406 -2.69532,-13.089844 C 578.84375,80.59375 571.90625,57.609375 567.51172,43.96875 561.37109,24.734375 557.92578,15.289062 556.23047,12.992188 552.23437,7.445312 546.04687,2.75 540.45312,1.050781 c -4.04296,-1.25 -10.58203,-1.351562 -14.77734,-0.25 z m -10.48047,79.144531 c 0,0.449219 -5.49219,2.699219 -5.79297,2.347657 -0.30078,-0.25 4.99219,-3.195313 5.44141,-2.996094 0.19922,0.09766 0.35156,0.398437 0.35156,0.648437 z m -7.98828,3.199219 c 0,0.09766 -2.39844,1.597657 -5.34375,3.347657 -2.99219,1.699218 -6.98828,4.296874 -8.93359,5.746093 -4.54297,3.398438 -11.58203,10.890629 -16.92578,17.937499 -4.79297,6.34375 -4.89063,6.44531 -11.48047,11.09375 -14.32813,10.08984 -23.26563,14.63672 -28.75391,14.63672 h -3.04687 l 3.39453,-4.39453 c 12.98047,-16.6875 28.60547,-30.12891 44.38281,-37.976564 7.13672,-3.546875 20.11719,-8.742187 26.60547,-10.542968 0.0508,-0.04688 0.10156,0.05078 0.10156,0.152343 z m -42.43359,3.097657 c 0.84765,2.199218 0.54687,4.046874 -1.05078,6.796874 -3.04297,5.195313 -9.38282,12.191408 -13.77735,15.335938 l -1.64844,1.10156 -0.49609,-1.30078 c -0.89844,-2.34765 -0.60156,-7.29297 0.49609,-9.242186 0.55079,-0.949219 3.89454,-4.496094 7.39063,-7.84375 6.73828,-6.496094 8.1875,-7.296875 9.08594,-4.847656 z m 68.29297,15.839842 c 0.0976,1.19922 -0.15235,2.44922 -0.75,3.34766 -2.39454,3.74609 -13.72657,11.6914 -19.3711,13.48828 -4.58984,1.5 -12.57812,4.84766 -21.21484,8.99609 -10.4336,4.94531 -17.27344,7.7461 -21.06641,8.54297 -2.69531,0.60156 -7.23828,0.35156 -8.6875,-0.44922 -1.34765,-0.75 3.29688,-3.84765 18.76953,-12.58984 12.1836,-6.79688 19.72266,-10.69531 26.66016,-13.74219 3.59375,-1.55078 7.28906,-3.44922 8.23828,-4.19531 3.39453,-2.69922 6.03906,-3.64844 13.27734,-5 3.69532,-0.648439 3.99219,-0.546876 4.14454,1.60156 z m -101.04297,7.34375 2.29687,1.05078 -1.69922,2.59766 c -0.89843,1.44922 -2.34375,3.74609 -3.24218,5.19531 -1.5,2.39844 -5.83985,6.54688 -6.33985,6.04688 -0.10156,-0.14844 0.29688,-1.34766 0.89844,-2.69922 0.69922,-1.59766 1.09766,-3.4961 1.09766,-5.44531 0.0508,-2.59766 0.19921,-3.04688 1.19921,-3.4961 0.7461,-0.30078 1.09766,-0.90234 1.09766,-1.80078 0,-0.84766 0.39844,-1.5 1.14844,-1.84766 0.59765,-0.30078 1.14844,-0.55078 1.14844,-0.55078 0.0469,-0.0508 1.09765,0.39844 2.39453,0.94922 z m 114.92187,23.78516 c -6.83984,6.29297 -19.62109,14.64062 -31.75,20.68359 -14.27734,7.14844 -29.85547,11.64453 -37.29297,10.74609 l -2.64453,-0.30078 0.84766,-1.60156 c 2.84375,-5.59375 8.28515,-11.69141 14.625,-16.4375 2.74609,-2.09766 13.58203,-7.34375 17.875,-8.69531 11.58203,-3.64453 25.66015,-5.9961 39.03906,-6.59375 l 1.74609,-0.0508 z m -81.32422,15.4375 c 1.34766,0.44922 1.59766,1.39843 1.9961,6.99609 1,15.64063 -7.28907,30.87891 -32,58.96094 -1.69532,1.89844 -4.64063,5.39453 -6.53907,7.74609 -1.89843,2.34766 -5.29296,6.39453 -7.48828,8.99219 -12.6289,14.83984 -25.66015,34.67578 -33.94531,51.61328 l -4.59375,9.39453 -0.35156,-2.34765 c -0.59766,-4.54688 -0.34766,-8.04297 1.80078,-22.9336 2.04687,-14.58984 6.4375,-33.22656 11.37891,-48.41797 1.34765,-4.14843 2.89843,-9.24218 3.49609,-11.29297 1.39844,-4.79687 6.64062,-18.78515 8.1875,-21.88281 0.64844,-1.30078 1.44922,-3.25 1.79687,-4.34765 0.34766,-1.10157 2.7461,-6.19532 5.33985,-11.34375 4.44531,-8.89454 9.58594,-16.88672 11.33594,-17.53907 0.39843,-0.14843 4.29296,-0.89843 8.63281,-1.54687 4.34375,-0.69922 9.9375,-1.60156 12.38281,-2 4.44141,-0.75 16.17578,-0.75 18.57031,-0.0508 z m 89.26172,19.98828 c 4.34375,0.44922 7.98438,0.84765 8.03516,0.89844 0.85156,0.85156 -0.19922,2.29687 -4.54297,6.39453 -10.53125,9.79297 -19.71875,15.08984 -30.45313,17.4414 -3.9414,0.89844 -12.92968,1.89844 -19.46875,2.2461 -14.02734,0.69922 -27.25781,3.34765 -37.64062,7.49609 -3.09375,1.25 -8.4375,3.89844 -11.92969,5.94531 -9.48437,5.4961 -9.03515,5.34766 -7.03906,2.54688 2.34375,-3.34766 11.53125,-12.83985 15.57422,-16.1875 17.32422,-14.28906 37.04297,-23.58594 55.26562,-26.03125 2.34375,-0.35156 5.39063,-0.75 6.73828,-1 4.24219,-0.64844 17.07422,-0.55078 25.46094,0.25 z m 15.92578,37.125 c -2.79687,2.49609 -14.73047,8.99219 -27.25781,14.78906 -5.69141,2.64844 -10.48437,4.79688 -10.58594,4.79688 -0.14843,0 -4.49218,1.94921 -9.63281,4.29687 -5.14453,2.34766 -18.57031,8.29297 -29.85547,13.19141 -31.39844,13.64062 -36.39062,15.89062 -50.91797,22.88281 -21.61718,10.44531 -30.45312,15.24219 -38.58984,20.88672 -1.75,1.19922 -3.24609,2.19922 -3.34375,2.19922 -0.10156,0 0.44922,-1.05078 1.24609,-2.39844 0.79688,-1.30078 1.94532,-4.14844 2.4961,-6.34375 1.39843,-5.74609 4.19531,-12.99219 5.74218,-15.04297 0.7461,-0.99609 3.04297,-3.14453 5.14063,-4.84375 2.09766,-1.69922 5.83984,-4.79687 8.33594,-6.89844 2.44922,-2.04687 8.63672,-6.84375 13.73047,-10.64062 5.08984,-3.75 10.48437,-7.79688 11.98046,-8.94531 1.4961,-1.14844 3.84375,-2.79688 5.24219,-3.64844 1.34766,-0.84766 4.64063,-2.89453 7.28906,-4.59375 9.63282,-6.09766 25.0586,-13.14453 32.14844,-14.58985 1.64844,-0.35156 3.79297,-0.85156 4.74219,-1.15234 2.69531,-0.84766 16.42578,-0.64844 23.96484,0.35156 3.69141,0.5 8.53516,1.09766 10.73047,1.39844 5.19141,0.64844 14.62891,0.10156 20.3711,-1.14844 4.78906,-1.05078 14.67578,-4.29687 17.12109,-5.64843 2.19531,-1.14844 2.14844,-0.94922 -0.0977,1.10156 z m -34.64843,34.875 c -8.28516,2.14844 -15.97266,5.09765 -24.46094,9.34375 -9.98438,4.94922 -15.27735,8.14453 -38.33985,23.28515 -36.79296,24.13282 -49.22265,30.32813 -62.55078,31.27735 l -3.69531,0.25 5.24219,-1.19922 c 6.23828,-1.39844 10.98047,-3.24609 17.72265,-6.89453 5.39063,-2.89844 17.47266,-10.74219 22.71485,-14.73828 25.25781,-19.23828 32.29687,-24.28516 41.18359,-29.48047 15.57422,-9.09375 27.95703,-12.99219 41.4375,-13.04297 h 5.48828 z M 543.5,265.62109 c 0.30078,0.80078 -1,2.04688 -4.94141,4.69532 -1,0.69921 -5.24218,4.04687 -9.38672,7.44531 -9.28515,7.69531 -11.08203,8.89453 -18.12109,12.29297 -5.34375,2.59765 -10.28516,3.94531 -12.67969,3.49609 -0.5,-0.0977 -1.5,-0.30078 -2.29687,-0.5 -5.14063,-1.04687 -4.09375,-6.44531 2.44531,-12.03906 5.54297,-4.75 9.68359,-7.14844 14.72656,-8.44531 1.59766,-0.39844 5.79297,-1.84766 9.28516,-3.19922 7.19141,-2.79688 9.38672,-3.44532 14.37891,-3.9961 5.53906,-0.64843 6.23828,-0.60156 6.58984,0.25 z m -385.24609,9.14453 c 6.4375,1.64844 8.23437,2.2461 8.73437,3.04688 0.5,0.84766 -0.64844,3.74609 -2.04687,4.94531 l -1.29688,1.10156 -5.34375,-1.25 c -2.94531,-0.69921 -5.73828,-1.30078 -6.23828,-1.30078 -0.44922,0 -2.14844,0.85157 -3.69531,1.94922 -13.77735,9.34375 -19.76953,11.44141 -29.30469,10.24219 -7.53516,-0.89844 -7.9375,-1.19922 -4.89062,-4.09375 3.29296,-3.10156 5.58984,-3.80078 12.23046,-3.69922 3.2461,0 6.28907,0.30078 6.83985,0.55078 1.04687,0.59766 1.24609,0.39844 5.53906,-5.44922 1.25,-1.64843 2.79687,-3.39453 3.49609,-3.89453 1.14844,-0.75 8.58594,-3.5 9.73438,-3.54687 0.30078,0 3.09375,0.59765 6.24219,1.39843 z m 327.98437,5.34375 c 0,0.30079 -7.33594,3.69922 -7.88672,3.64844 -0.30078,0 7.38672,-3.94531 7.73828,-3.94531 0.0977,0 0.14844,0.14844 0.14844,0.29687 z m 92.75391,1.35157 4.14453,0.59765 -6.6875,6.34766 c -9.78516,9.24219 -12.83203,11.33984 -18.82031,13.08984 -4.19532,1.19922 -12.03125,2.29688 -16.22657,2.29688 h -3.74218 v 1.75 c 0,5.19531 2.74609,8.79297 8.63671,11.24219 2.09375,0.89843 3.84375,1.75 3.84375,1.94921 0,0.14844 -1.84765,0.75 -4.14453,1.25 -5.58984,1.29688 -19.07031,6.89454 -31.55078,13.14063 -11.48047,5.74609 -22.71484,8.69531 -37.99219,9.99219 -4.58984,0.35156 -20.21875,-0.64844 -28.2539,-1.84766 -8.78516,-1.34766 -28.90625,-6.14453 -31.35156,-7.49609 -0.75,-0.44922 -0.25,-0.69922 10.73437,-5.64453 5.78906,-2.64844 18.87109,-7.09766 25.91016,-8.89454 14.07422,-3.59765 22.26172,-4.44531 50.96875,-5.44531 15.97656,-0.55078 20.21875,-1.14844 20.21875,-2.69922 0,-1.19922 -3.54688,-5.09765 -6.33985,-6.99609 -1.19922,-0.75 -2.14843,-1.54688 -2.14843,-1.74609 0,-0.55079 26.16015,-13.94141 32.35156,-16.49219 11.67969,-4.89453 19.51953,-5.9961 30.44922,-4.39453 z m -108.47657,6.24609 c -0.30078,0.25 -3.09765,1.94531 -6.24218,3.84766 -3.14453,1.89843 -8.33594,5.14453 -11.48047,7.24218 -12.1836,8.14454 -14.97656,9.64454 -21.46875,11.69141 -6.14063,1.94922 -14.12891,3.14844 -23.21094,3.5 l -7.98828,0.30078 4.49219,-1.75 c 2.49609,-0.94922 8.63672,-2.89844 13.72656,-4.29687 20.96875,-5.7461 35.49609,-11.29297 46.92969,-17.88672 4.9414,-2.89844 6.28906,-3.55078 5.24218,-2.64844 z m -256.19921,1.84766 c 7.08593,0.94922 13.3789,2.39843 23.60937,5.49609 7.03906,2.14844 9.83594,2.64844 23.66406,4.24609 15.07813,1.75 26.5586,4.7461 39.39063,10.19532 7.38672,3.14843 22.0625,10.89062 28.2539,14.9375 2.84766,1.85156 2.89454,1.94922 1.25,1.69922 -0.94921,-0.19922 -5.99218,-0.55079 -11.23437,-0.84766 -15.82422,-0.94922 -26.95703,-0.25 -62.90234,3.99609 -23.21094,2.79688 -24.21094,2.89844 -36.49219,3.7461 -9.98438,0.69922 -12.08203,0.69922 -21.71485,0 -8.1875,-0.59766 -12.03125,-1.14844 -16.42578,-2.2461 -9.08593,-2.25 -10.58203,-2.94922 -11.73047,-5.24609 -2.19531,-4.59766 -1.19921,-11.09375 2.59375,-16.73828 2.25,-3.34766 8.78907,-9.9961 13.03125,-13.19141 3.09375,-2.35156 9.4336,-5.94922 11.33204,-6.44531 2.14843,-0.55078 11.63281,-0.30078 17.375,0.39844 z m -47.72657,6.84375 c -1.19922,1.44922 -2.84765,3.64843 -3.64453,4.89843 -1.29687,2 -1.69922,2.2461 -3.44531,2.34766 -3.09375,0.19922 -9.53516,1.55078 -14.22656,3 -5.79297,1.79688 -20.07031,8.49219 -29.70313,13.98828 -15.624998,8.89453 -29.105466,15.94141 -29.554685,15.48828 -0.101563,-0.14843 2.347656,-2.79687 5.441406,-5.89453 7.988281,-8.04297 18.519529,-16.38672 26.609379,-21.08594 1.89453,-1.09765 5.1914,-2.99609 7.23828,-4.19531 4.6914,-2.69922 16.125,-7.19531 22.71484,-8.94531 4.94141,-1.25 10.83203,-2 17.37109,-2.14844 l 3.44532,-0.0508 z m -7.98828,21.78515 c -1.24609,1.85157 -2.74609,4.84766 -3.39453,6.7461 l -1.14844,3.34765 -5.49218,3.09766 c -3.04297,1.69922 -9.98438,5.59766 -15.375,8.69531 -18.07032,10.39453 -27.95703,14.78906 -35.046879,15.53906 -2.445312,0.25 -2.894531,0.19922 -2.542969,-0.39843 4.042969,-6.7461 20.316408,-19.03907 41.433598,-31.28125 10.13281,-5.89453 12.08203,-6.84375 18.72265,-9.09375 5.48828,-1.84766 5.9375,-1.34766 2.84375,3.34765 z M 55.113281,317.83594 c 2.945313,1.29687 3.59375,2.64843 2.097657,4.54687 -0.550782,0.75 -1.546876,2.04688 -2.195313,2.89844 -0.851563,1.09766 -1.597656,1.49609 -2.746094,1.49609 -1.597656,0 -10.835937,-2.99609 -10.835937,-3.49609 0,-0.14844 1.101562,-1.39844 2.496094,-2.74609 2.296874,-2.25 4.292968,-3.14844 8.539062,-3.69922 0.199219,-0.0508 1.398438,0.39843 2.644531,1 z m 504.160159,10.64062 c 3.49609,0.90235 7.6875,2.55078 14.48047,5.79688 5.28906,2.55078 9.78125,4.79687 10.03125,4.99609 0.5,0.5 -5.14063,4.74609 -8.48438,6.29688 l -2.49609,1.19921 -6.49219,-1.44921 c -3.54297,-0.80079 -8.23438,-1.94922 -10.43359,-2.4961 -3.69141,-0.95312 -13.57813,-2.5 -21.21485,-3.35156 -1.79687,-0.19922 -2.84765,-0.49609 -2.39844,-0.64844 0.44922,-0.14844 1.59766,-1.29687 2.54688,-2.54687 2.14844,-2.79688 5.69141,-5.7461 8.1875,-6.84766 5.74219,-2.39844 9.43359,-2.64844 16.27344,-0.94922 z m -234.13282,10.54297 c 0.44922,1 0.84766,1.85156 0.84766,1.94922 0,0.15234 -1.64453,0.85156 -3.59375,1.60156 -17.22266,6.49219 -30.05078,12.03906 -42.58203,18.33594 -24.76172,12.39062 -40.13672,22.43359 -65,42.47266 -10.38281,8.34375 -20.41797,16.63671 -26.55859,21.93359 -9.1836,7.99609 -15.67579,12.44141 -16.6211,11.49219 -0.64844,-0.64844 0.54688,-3.44922 1.59766,-3.7461 0.69922,-0.19922 2.99219,-3.59765 2.99219,-4.44922 0,-0.0976 -1.69532,-0.0976 -3.74219,0 -2.04688,0.10157 -3.7461,0 -3.7461,-0.25 0,-1.09765 4.64454,-7.04296 16.97657,-21.63281 12.23047,-14.4414 31.05078,-34.47656 44.92968,-47.76953 l 9.98438,-9.49219 8.58594,-2.84765 c 16.77343,-5.44922 30.85156,-8.34766 40.53515,-8.34766 4.59375,0 15.47657,1.5 18.07032,2.55078 0.85156,0.30078 2.54687,0.39844 4.14453,0.19922 2.64843,-0.35156 9.4375,-2.34766 10.98437,-3.24609 1.19922,-0.70313 1.29688,-0.65235 2.19531,1.24609 z m 38.69141,2.10156 c -0.40234,0.5 -4.54297,5.4961 -9.13672,11.14063 -7.28906,8.89453 -18.76953,22.48437 -26.25781,31.17969 -3.04688,3.54687 -12.18359,11.9414 -17.17578,15.78906 -4.99219,3.89844 -13.32813,8.09375 -18.76953,9.54297 -2.7461,0.69922 -6.58985,1.19922 -10.9336,1.44922 l -6.73828,0.30078 -3.99219,2.19922 c -2.19921,1.14843 -5.6914,3.19531 -7.73828,4.49609 -5.19531,3.24609 -10.23437,5.99609 -10.98437,5.99609 -1.04688,0 -0.34766,-5.84765 1,-8.74609 1.54687,-3.24609 9.83203,-11.53906 15.47265,-15.53906 6.58985,-4.69532 22.26563,-14.08985 34.19922,-20.58594 9.33594,-5.04688 31.39844,-17.78906 36.69141,-21.13672 5.44141,-3.49609 12.92969,-8.64062 19.17187,-13.28906 4.83985,-3.54688 6.73829,-4.54688 5.19141,-2.79688 z m -185.46094,1.84766 c 2.69532,0.69922 4.84375,1.75 4.84375,2.34766 0,0.14843 -3.74609,3.29687 -8.33984,6.99609 -4.64063,3.64844 -9.48438,7.69531 -10.88281,8.99219 -3.94141,3.64843 -11.03125,8.99609 -16.47266,12.4414 -2.74609,1.69922 -5.54297,3.5 -6.24219,4 -6.14062,4.19532 -18.62109,8.19141 -27.40625,8.74219 l -5.1914,0.35156 1.64844,-2.89843 c 0.89843,-1.64844 2.24609,-3.75 2.99609,-4.69922 0.74609,-0.94922 1.64453,-2.29688 1.99609,-2.9961 1.44532,-2.64843 8.13672,-10.54297 12.53125,-14.6914 11.33203,-10.69141 23.61328,-16.88672 37.39063,-18.98438 3.19531,-0.45312 10.68359,-0.25 13.1289,0.39844 z m 57.26172,-0.0508 c 0,0.10156 -2.09765,1.75 -4.59375,3.64844 -2.54687,1.89843 -10.78515,8.49218 -18.37109,14.6914 -33.7461,27.53125 -41.53516,33.52735 -54.06641,41.51953 -5.89062,3.7461 -20.51953,10.94141 -21.0664,10.34375 -0.35157,-0.35156 2.54687,-10.14453 3.94531,-13.14062 3.74219,-8.2461 14.82422,-19.58594 26.30859,-27.03125 3.44141,-2.25 5.53906,-3.79688 15.92188,-11.79297 10.08593,-7.74609 21.46875,-14.19141 27.00781,-15.33984 9.83594,-2 24.91406,-3.7461 24.91406,-2.89844 z m 184.26172,2.29687 c 3.14453,1.10157 12.52734,3.55078 20.91406,5.5 14.77735,3.44532 19.17188,4.69532 31.70313,9.04297 8.13672,2.79688 34.24609,15.28906 46.17578,22.08594 5.34375,2.99609 12.38281,6.99219 15.57812,8.79297 3.19141,1.84765 5.73829,3.39844 5.64063,3.49609 -0.10156,0.10156 -3.69531,-1.34765 -8.08984,-3.19531 -12.23047,-5.19922 -27.00782,-10.49609 -34.7461,-12.44141 -4.58984,-1.19922 -12.17969,-1.69922 -12.97656,-0.95312 -0.15234,0.20312 0.54687,1.44922 1.59766,2.89844 0.99609,1.40234 3.09375,4.34765 4.54296,6.54687 4.19141,6.24609 8.08594,10.04297 12.48047,12.09375 3.09375,1.44922 4.74219,1.84766 9.98438,2.44531 9.48437,1.05078 9.18359,1.15235 -3.4961,0.94922 -17.57421,-0.29687 -24.0625,-1.54687 -33.99609,-6.49219 -7.14062,-3.59765 -10.68359,-6.54687 -27.65625,-22.98828 -9.1875,-8.89062 -17.875,-16.73828 -23.71484,-21.43359 -10.4336,-8.44531 -10.28125,-8.29297 -9.9336,-8.29297 0.14844,0 2.84375,0.89844 5.99219,1.94531 z m 115.26953,1.5 c 8.08594,2.25 17.02344,10.64453 23.8125,22.28516 3.89063,6.69531 4.74219,8.34375 4.49219,8.54297 -0.10156,0.15234 -1.99609,-0.34766 -4.14453,-0.9961 -2.14453,-0.69921 -9.53516,-2.94921 -16.42578,-4.99609 -6.83594,-2.05078 -19.76563,-6.24609 -28.70313,-9.29687 -8.9375,-3.04688 -16.97265,-5.79297 -17.82031,-6.09375 -0.89844,-0.30079 -1.64844,-0.75 -1.64844,-0.89844 0,-0.20313 1.19922,-0.55078 2.64453,-0.70313 7.39063,-0.99609 15.17578,-3.39453 23.8125,-7.49218 3.4961,-1.64844 8.83594,-1.75 13.98047,-0.35157 z m -42.93359,7.79688 c 0.79687,0.44922 0.94922,0.69922 0.44922,0.75 -0.39844,0 -1.19922,-0.35156 -1.7461,-0.75 -1.19922,-0.90235 -0.35156,-0.94922 1.29688,0 z m -192.69922,11.9414 c 0,0.55079 -21.81641,19.13672 -26.21094,22.33594 -2.74219,1.9961 -14.77344,10.14063 -26.70703,18.08594 -22.16406,14.78906 -37.39062,24.23437 -43.23047,26.88281 l -3.29687,1.44922 0.85156,-1.35156 c 0.49609,-0.79688 1.84375,-2.64844 2.99219,-4.14453 1.14843,-1.5 2.79687,-3.84766 3.69531,-5.14844 2.24609,-3.29688 13.73047,-14.64063 19.26953,-19.08594 12.17969,-9.69531 28.95703,-19.13672 56.16406,-31.48047 6.1875,-2.79687 12.37891,-5.69531 13.72657,-6.39453 2.74609,-1.44922 2.74609,-1.44922 2.74609,-1.14844 z m 61.50391,8.84375 c -0.80079,2.04688 -2.54688,6.94532 -3.84375,10.94141 -1.29688,3.99609 -4.24219,12.29297 -6.48829,18.48828 -2.25,6.19531 -4.49609,12.49219 -4.99218,13.99219 -1.39844,4.29687 -8.83985,19.93359 -12.03125,25.33203 -3.59766,6.09375 -6.99219,10.69141 -11.73438,15.9375 -2.04687,2.19922 -5.04297,5.64844 -6.64062,7.64453 -3.79297,4.59766 -11.87891,12.39453 -15.32422,14.69141 -1.44922,1 -2.7461,1.75 -2.79688,1.64844 -0.0976,-0.0508 0.15235,-0.80079 0.44922,-1.64844 0.5,-1.34766 0.40235,-1.94922 -0.79687,-4.69531 -0.80078,-1.75 -1.54688,-3.34766 -1.7461,-3.55079 -0.20312,-0.19921 -1.39843,1.44922 -2.74609,3.64844 l -2.39844,4.04688 -0.0976,6.04687 c -0.19922,8.99219 -2.44922,15.89063 -8.13672,24.4336 -2.34766,3.59765 -9.08594,11.09375 -10.78516,11.9414 -0.84766,0.5 -0.79687,0.25 0.35156,-1.64844 2.79297,-4.54687 5.28907,-10.6914 8.73438,-21.53515 1.94531,-6.14453 3.79297,-12.49219 4.04297,-14.14063 0.64843,-3.79687 0.64843,-12.79297 0,-14.28906 -0.64844,-1.64844 -2.54688,-3.75 -2.79297,-3.09766 -0.94922,2.29688 -7.08985,12.64063 -10.58594,17.9375 -5.78906,8.64454 -11.73047,14.83985 -16.72266,17.4375 -2.04687,1.04688 -3.99609,1.84766 -4.29296,1.75 -0.30079,-0.10156 4.54296,-7.09765 10.78125,-15.49218 6.29296,-8.39453 13.53125,-18.38672 16.125,-22.1836 5.24218,-7.59375 7.4375,-10.34375 10.28515,-12.83984 1.59766,-1.40234 2.2461,-1.65234 4.64063,-1.75 l 2.79687,-0.0508 1.34766,-4.44531 c 1.79687,-5.94922 2.84765,-8.59766 5.29297,-13.64063 8.33593,-17.23828 20.91797,-32.73047 39.28906,-48.41797 6.28906,-5.39844 21.61328,-16.78906 22.0625,-16.39062 0.10156,0.15234 -0.44922,1.89843 -1.24609,3.89843 z m 13.1289,13.53907 c 1.25,2.89843 2.89453,7.79687 3.69531,10.84375 0.79688,3 1.54688,5.69531 1.69532,5.89453 1,1.65234 4.74218,24.43359 5.79297,35.3789 1.94531,19.88672 2.24609,26.98047 2.29687,48.46485 v 21.98828 h -1.5 c -1.29687,0 -1.64453,-0.35156 -2.84375,-2.75 -1.64844,-3.39844 -3.59375,-9.39453 -4.84375,-14.98828 -1.29687,-5.84766 -1.44531,-6.89844 -2.49609,-15.78906 -0.54688,-4.25 -1.04688,-7.84766 -1.14844,-7.9961 -0.14844,-0.10156 -0.5,2 -0.84766,4.69531 -0.34765,2.64844 -1.49609,8.94532 -2.59765,13.94141 -1.64453,7.69531 -1.94532,10.04297 -1.94532,14.99219 0,6.19531 0.64844,11.1914 1.79688,14.28906 0.80078,2.14844 0.89844,2.74609 0.25,2.04688 -1.25,-1.25 -6.53906,-16.6875 -9.48438,-27.42969 -5.14453,-18.98828 -8.38671,-36.32422 -9.78515,-52.36719 -1,-11.83984 -0.94922,-16.08594 0.25,-20.73437 1.94531,-7.54297 3.54297,-11.04297 14.42578,-30.98047 4.24609,-7.74219 3.79687,-7.79297 7.28906,0.5 z m 171.03125,7.69531 c 0.85156,0.40234 1.44922,0.89844 1.30078,1 -0.15234,0.14844 -1,-0.19922 -1.89843,-0.75 -1.9961,-1.25 -1.54688,-1.39844 0.59765,-0.25 z m -45.07812,16.69141 c 4.99218,1.34765 10.68359,3.14453 12.67968,3.99609 4.99219,2.14844 14.42969,6.94531 15.52735,7.89453 0.84765,0.75 1.14844,3.24609 0.54687,4.84766 -0.59765,1.44922 -4.14062,2.89843 -6.39062,2.54687 -3.39453,-0.55078 -20.21485,-6.29687 -24.5586,-8.39453 -4.79296,-2.34766 -10.43359,-6.49609 -11.73437,-8.59375 -1.09766,-1.75 -1.24609,-4.09766 -0.29688,-4.44922 1.79688,-0.74609 5.94141,-0.0976 14.22657,2.15235 z m -211.1211,11.28906 c -0.54687,0.69922 -0.49609,0.90234 0.25,1.44922 1.75,1.30078 0.19922,3.89843 -5.89062,9.99609 -5.49219,5.49609 -12.42969,11.03906 -21.91406,17.4375 -5.09375,3.44531 -10.73438,6.54297 -11.1836,6.09375 -0.64844,-0.59766 8.58594,-11.99219 13.92969,-17.08594 7.1875,-6.94531 13.12891,-11.44531 22.11328,-16.89062 3.39453,-2.04688 3.64453,-2.14844 2.69531,-1 z m 61.10547,29.48047 c -0.19922,1.44922 -0.59765,10.64453 -1.19922,24.93359 -0.94531,24.53516 -3.49218,40.07422 -7.63672,46.61719 -2.14453,3.44922 -2.49609,3.44922 -3.89453,0.25 -3.09375,-7.04297 -5.04297,-14.53906 -5.89062,-22.88281 -0.59766,-5.89454 -2.19531,-16.48829 -2.69531,-17.73829 -0.19922,-0.5 0.75,-2.14843 2.54687,-4.49609 1.69531,-2.25 3.79297,-5.89844 5.24219,-9.14453 3.44531,-7.84375 5.4414,-11.14063 9.18359,-15.23828 3.19531,-3.55078 4.54297,-4.25 4.34375,-2.30078 z m -29.7539,38.77343 c 1.34765,2.80079 1.99609,8.7461 1.59765,13.94141 -0.34765,4.29688 -1.74609,8.39453 -5.6914,16.73828 -2.79297,5.79688 -5.69141,9.19531 -7.78516,9.19531 -1.89844,0 -5.19531,-2.5 -6.54297,-4.94531 -2.64453,-4.64844 -3.14453,-7.49609 -3.14453,-17.23828 v -8.89453 l 2.14844,-1.85156 c 2.54687,-2.09766 16.47265,-9.59375 17.57031,-9.39063 0.40234,0.0469 1.25,1.14844 1.84766,2.44531 z m 0,0"
       id="path1" />
  </g>
</svg>
