<?xml version="1.0" encoding="UTF-8" standalone="no"?>
<!-- Created with Inkscape (http://www.inkscape.org/) -->

<svg
   width="210mm"
   height="297mm"
   viewBox="0 0 210 297"
   version="1.1"
   id="svg1"
   xml:space="preserve"
   inkscape:version="1.3.1 (91b66b0783, 2023-11-16)"
   sodipodi:docname="car.svg"
   xmlns:inkscape="http://www.inkscape.org/namespaces/inkscape"
   xmlns:sodipodi="http://sodipodi.sourceforge.net/DTD/sodipodi-0.dtd"
   xmlns="http://www.w3.org/2000/svg"
   xmlns:svg="http://www.w3.org/2000/svg"><sodipodi:namedview
     id="namedview1"
     pagecolor="#ffffff"
     bordercolor="#000000"
     borderopacity="0.25"
     inkscape:showpageshadow="2"
     inkscape:pageopacity="0.0"
     inkscape:pagecheckerboard="0"
     inkscape:deskcolor="#d1d1d1"
     inkscape:document-units="mm"
     inkscape:zoom="1.3190696"
     inkscape:cx="441.97819"
     inkscape:cy="582.60762"
     inkscape:window-width="2400"
     inkscape:window-height="1261"
     inkscape:window-x="-9"
     inkscape:window-y="172"
     inkscape:window-maximized="1"
     inkscape:current-layer="layer1" /><defs
     id="defs1" /><g
     inkscape:label="Sloj 1"
     inkscape:groupmode="layer"
     id="layer1"><path
       style="fill:#000000;stroke-width:0.764786"
       d="M 94.816743,217.73328 C 88.76052,216.80359 84.180551,211.80734 84.180551,206.13035 v -1.33504 h -3.038913 -3.038912 v -2.02105 -2.02107 h 2.042465 2.042464 l -0.06717,-2.54339 -0.06717,-2.54339 -0.685723,-0.61072 c -0.602126,-0.53627 -0.785051,-0.59488 -1.5005,-0.48075 l -0.814777,0.12997 0.135081,-3.08955 c 0.121582,-2.78079 0.316472,-4.39928 0.660448,-5.48477 0.103543,-0.32675 0.039,-0.35673 -0.509383,-0.23658 -0.56987,0.12487 -0.62795,0.0914 -0.62795,-0.36134 0,-0.78021 0.549638,-1.26346 2.795314,-2.45767 3.492989,-1.85752 5.68916,-3.67201 14.323892,-11.83448 8.691603,-8.21622 8.147793,-7.86671 13.168623,-8.46352 6.84418,-0.81354 12.55158,-1.18929 20.6646,-1.36047 10.45363,-0.22056 18.32919,0.50064 22.56301,2.06618 1.62375,0.60042 3.34252,1.92923 8.7116,6.73512 6.05142,5.41664 6.48277,5.74232 8.59233,6.48744 12.20626,4.31133 21.94702,8.45073 23.38447,9.93736 0.41668,0.43094 0.75223,1.07058 0.93526,1.78288 l 0.28545,1.11083 -3.46769,0.10105 c -2.3465,0.0684 -3.62062,0.18799 -3.94068,0.36995 -0.63261,0.35965 -1.04646,1.41226 -1.04646,2.66163 0,1.26082 0.38312,2.21964 1.11704,2.79554 0.52121,0.40901 0.77934,0.43815 3.88081,0.43815 h 3.32246 l -0.1318,1.06106 c -0.0725,0.58358 -0.24446,1.6779 -0.38216,2.43184 -0.1377,0.75393 -0.1727,1.41867 -0.0778,1.47719 0.0949,0.0585 0.17259,0.96504 0.17259,2.01448 v 1.90808 h -5.2176 -5.21758 l -0.0436,1.33489 c -0.0994,3.04428 -1.3419,5.83426 -3.59135,8.06426 -2.46294,2.44164 -5.17156,3.56033 -8.62042,3.56033 -3.57538,0 -6.08659,-1.03673 -8.61672,-3.55733 -2.34067,-2.33185 -3.34401,-4.51084 -3.66537,-7.96021 l -0.13435,-1.44194 h -24.89001 -24.88999 l -0.004,0.96 c -0.0139,3.79548 -2.2886,7.87453 -5.62219,10.0819 -2.2168,1.46789 -5.751144,2.27997 -8.251996,1.89607 z m 5.013731,-4.52665 c 2.586926,-1.2399 4.398056,-3.6508 4.832146,-6.43233 0.54409,-3.48635 -1.38757,-7.0961 -4.6568,-8.70231 -1.25658,-0.61737 -1.454272,-0.65354 -3.572971,-0.65354 -2.185502,0 -2.282319,0.0195 -3.790212,0.76242 -1.827375,0.90034 -2.957689,2.06144 -3.881361,3.98707 -0.581505,1.21229 -0.630139,1.47747 -0.630139,3.43579 0,1.96725 0.04721,2.22153 0.64691,3.48445 0.734996,1.54785 2.194409,3.122 3.528817,3.80624 1.60644,0.82373 2.417023,0.99385 4.434523,0.93063 1.608156,-0.0504 2.116126,-0.15208 3.089087,-0.61842 z m -5.31271,-0.43645 c -1.531099,-0.42774 -2.63169,-1.11455 -3.71856,-2.3205 -2.50188,-2.77598 -2.459976,-7.00086 0.09712,-9.79198 1.904362,-2.07866 4.608142,-2.92314 7.220989,-2.25538 5.106787,1.30514 7.312797,7.05369 4.368667,11.38412 -1.73201,2.54756 -5.063767,3.79515 -7.968216,2.98374 z m 0.754875,-1.86107 c 0.110771,-0.33188 -0.524005,-0.56879 -0.796271,-0.29718 -0.116514,0.11623 -0.147469,0.31523 -0.06879,0.44223 0.179003,0.28894 0.752297,0.19281 0.865061,-0.14505 z m 2.646193,0.002 c -0.101704,-0.52684 -0.772256,-0.5856 -0.772256,-0.0677 0,0.28923 0.130111,0.41903 0.420043,0.41903 0.289933,0 0.399033,-0.10884 0.352213,-0.35136 z m -5.026733,-1.26549 c 0,-0.26948 -0.135063,-0.40421 -0.405189,-0.40421 -0.270125,0 -0.405188,0.13473 -0.405188,0.40421 0,0.26948 0.135063,0.40421 0.405188,0.40421 0.270126,0 0.405189,-0.13473 0.405189,-0.40421 z m 7.445391,0.0506 c 0.11077,-0.33188 -0.524003,-0.56879 -0.796269,-0.29718 -0.116513,0.11623 -0.147469,0.31523 -0.06879,0.44223 0.179002,0.28894 0.752299,0.19281 0.865059,-0.14505 z m -2.427444,-0.36343 c 1.706459,-0.71129 2.562474,-2.1354 2.439704,-4.05883 -0.0664,-1.04035 -0.19249,-1.41184 -0.691612,-2.03771 -1.794345,-2.25001 -5.030229,-2.18861 -6.664742,0.12647 -0.531713,0.75309 -0.607782,1.03355 -0.607782,2.24075 0,1.20721 0.07606,1.48767 0.607782,2.24077 1.127653,1.59717 3.171501,2.21596 4.91665,1.48855 z m -6.585128,-1.62697 c 0.193338,-0.19286 -0.07085,-0.6876 -0.367182,-0.6876 -0.339381,0 -0.560794,0.33946 -0.39547,0.60631 0.138373,0.22335 0.573732,0.26976 0.762652,0.0813 z m 10.481322,-0.29822 c 0,-0.51792 -0.67055,-0.45916 -0.77226,0.0677 -0.0468,0.24253 0.0623,0.35136 0.35222,0.35136 0.28993,0 0.42004,-0.12979 0.42004,-0.41903 z m -10.788078,-2.56191 c 0.11077,-0.33188 -0.524005,-0.5688 -0.796271,-0.29719 -0.116514,0.11624 -0.147469,0.31524 -0.06879,0.44224 0.179003,0.28893 0.752297,0.19281 0.865061,-0.14505 z m 11.155148,0.002 c -0.10171,-0.52684 -0.77226,-0.58559 -0.77226,-0.0677 0,0.28924 0.13011,0.41904 0.42005,0.41904 0.28993,0 0.39903,-0.10884 0.35221,-0.35137 z m -10.362219,-2.39065 c 0.168853,-0.43897 -0.259815,-0.85178 -0.566647,-0.54569 -0.259326,0.25871 -0.09867,0.86244 0.229496,0.86244 0.118421,0 0.270139,-0.14254 0.337151,-0.31675 z m 9.454949,0.0283 c 0.14702,-0.3822 -0.3082,-0.74642 -0.66103,-0.52888 -0.33546,0.20683 -0.14012,0.81726 0.26152,0.81726 0.15872,0 0.3385,-0.12977 0.39951,-0.28838 z m -7.396764,-2.00206 c 0.04417,-0.22718 -0.07132,-0.33694 -0.35454,-0.33694 -0.231024,0 -0.420043,0.12127 -0.420043,0.26948 0,0.619 0.656248,0.67616 0.774583,0.0674 z m 5.455246,0.11791 c 0.110771,-0.33188 -0.524005,-0.56879 -0.796272,-0.29718 -0.116513,0.11623 -0.147469,0.31523 -0.06879,0.44223 0.179002,0.28894 0.752297,0.19281 0.865062,-0.14505 z m -2.583135,-0.76769 c 0,-0.37974 -0.399726,-0.58186 -0.652336,-0.32986 -0.302539,0.30181 -0.0364,0.86312 0.340777,0.71873 0.171357,-0.0656 0.311559,-0.24059 0.311559,-0.38887 z m 77.593553,13.32002 c 1.9153,-0.90508 3.09298,-2.04044 3.98583,-3.84265 0.65451,-1.32111 0.7642,-1.75039 0.83577,-3.27102 0.0666,-1.41561 -0.002,-1.99836 -0.35721,-3.04727 -0.77735,-2.29329 -2.23242,-3.93369 -4.45684,-5.02453 -1.02367,-0.502 -1.32564,-0.55013 -3.45164,-0.55013 -2.14622,0 -2.42164,0.045 -3.4947,0.57063 -5.9225,2.90124 -6.6003,10.82518 -1.24065,14.50383 1.5598,1.07057 2.76586,1.39709 4.93794,1.33682 1.66475,-0.0462 2.10246,-0.13744 3.2415,-0.67568 z m -5.11633,-0.29183 c -5.06322,-1.19044 -7.39533,-7.14951 -4.47755,-11.4412 0.83795,-1.2325 1.66901,-1.90598 3.26576,-2.6465 0.97322,-0.45136 1.44171,-0.5386 2.88403,-0.53708 1.45935,0.002 1.91435,0.0895 2.98266,0.57651 3.0944,1.41069 4.94619,4.86215 4.3179,8.04797 -0.30997,1.57172 -0.81486,2.57078 -1.88391,3.72777 -1.82665,1.97691 -4.58511,2.8612 -7.08889,2.27253 z m 0.53264,-1.76076 c 0.17842,-0.28798 -0.2287,-0.70953 -0.56201,-0.58193 -0.45778,0.17524 -0.40514,0.74316 0.0689,0.74316 0.21629,0 0.43819,-0.0726 0.49312,-0.16123 z m 2.70976,-0.19235 c 0.11077,-0.33188 -0.52401,-0.56879 -0.79627,-0.29719 -0.11651,0.11624 -0.14747,0.31524 -0.0688,0.44224 0.179,0.28893 0.7523,0.19281 0.86506,-0.14505 z m -5.06486,-1.21263 c 0.11077,-0.33189 -0.524,-0.5688 -0.79627,-0.29719 -0.11651,0.11624 -0.14746,0.31524 -0.0688,0.44224 0.179,0.28893 0.7523,0.1928 0.86507,-0.14505 z m 7.34398,-0.0506 c 0,-0.22231 -0.13137,-0.40421 -0.29193,-0.40421 -0.3579,0 -0.58673,0.33259 -0.41714,0.60632 0.22031,0.35562 0.70907,0.21632 0.70907,-0.20211 z m -2.00715,-0.47025 c 2.96238,-1.56018 2.89581,-5.87125 -0.1117,-7.23408 -2.73564,-1.23963 -5.78232,0.68998 -5.78232,3.66222 0,3.05052 3.20083,4.99027 5.89402,3.57186 z m -6.90699,-1.75291 c 0,-0.26947 -0.13506,-0.40421 -0.40518,-0.40421 -0.27013,0 -0.40519,0.13474 -0.40519,0.40421 0,0.26947 0.13506,0.40421 0.40519,0.40421 0.27012,0 0.40518,-0.13474 0.40518,-0.40421 z m 10.49633,0.0505 c -0.0375,-0.19453 -0.20254,-0.35368 -0.36662,-0.35368 -0.16409,0 -0.32907,0.15915 -0.36662,0.35368 -0.0479,0.24816 0.0615,0.35368 0.36662,0.35368 0.30513,0 0.41452,-0.10552 0.36662,-0.35368 z m -10.74951,-2.62726 c 0.11076,-0.33189 -0.52401,-0.5688 -0.79627,-0.29719 -0.11652,0.11624 -0.14747,0.31524 -0.0688,0.44224 0.179,0.28893 0.75229,0.1928 0.86506,-0.14505 z m 11.14267,0 c 0.11078,-0.33189 -0.524,-0.5688 -0.79627,-0.29719 -0.11651,0.11624 -0.14747,0.31524 -0.0688,0.44224 0.17901,0.28893 0.7523,0.1928 0.86506,-0.14505 z m -10.34974,-2.38844 c 0.16885,-0.43897 -0.25981,-0.85177 -0.56665,-0.54569 -0.25933,0.25871 -0.0987,0.86244 0.2295,0.86244 0.11842,0 0.27013,-0.14254 0.33715,-0.31675 z m 9.32195,-0.007 c 0.14332,-0.37261 -0.34663,-0.76097 -0.61822,-0.49004 -0.22113,0.2206 -0.0181,0.8136 0.27845,0.8136 0.11841,0 0.27131,-0.1456 0.33977,-0.32356 z m -7.2661,-1.95245 c 0.0453,-0.23455 -0.0606,-0.35137 -0.31844,-0.35137 -0.496,0 -0.65713,0.16716 -0.51566,0.53495 0.15042,0.39103 0.74859,0.25937 0.8341,-0.18358 z m 5.37124,0.17365 c 0.13661,-0.35514 -0.0267,-0.52502 -0.50462,-0.52502 -0.36297,0 -0.50522,0.40547 -0.23636,0.67369 0.22933,0.22877 0.62644,0.1491 0.74098,-0.14867 z m -2.58608,-1.11194 c -0.17395,-0.28079 -0.65664,-0.28694 -0.82788,-0.0105 -0.0719,0.11603 -0.0167,0.34797 0.12259,0.51541 0.2216,0.26637 0.29014,0.26768 0.5479,0.0105 0.16204,-0.16164 0.23287,-0.39358 0.15739,-0.5154 z m 21.12007,-1.28256 c -0.062,-0.85477 -0.0665,-0.85925 -0.92332,-0.92109 l -0.86102,-0.0622 v 0.9211 0.92109 h 0.92332 0.92332 z m -61.54961,-5.48615 v -0.88824 l -0.82091,-0.0781 c -0.4515,-0.0429 -0.86175,-0.0374 -0.91167,0.0125 -0.14269,0.14234 -0.10598,1.55749 0.0443,1.7074 0.0743,0.0741 0.48453,0.13474 0.91167,0.13474 h 0.77661 z m 0,-2.6486 v -0.90948 h -0.91168 -0.91167 v 0.90948 0.90947 h 0.91167 0.91168 z m -10.38296,-8.31214 6.12848,-0.12167 v -7.62515 -7.62516 l -3.19086,-0.13203 c -9.94688,-0.41154 -14.15895,0.0203 -17.84524,1.82963 -1.83028,0.89836 -4.53544,3.41335 -8.466715,7.87155 -1.494047,1.6943 -2.806089,3.13581 -2.915647,3.20336 -0.305473,0.18834 -0.236946,0.96579 0.131364,1.49035 0.181809,0.25895 0.797189,0.69226 1.36751,0.96292 l 1.036948,0.4921 8.81285,-0.11212 c 4.84706,-0.0616 11.57065,-0.16687 14.94131,-0.23378 z m 26.084,-0.38083 c 14.91576,-0.24059 16.75804,-0.31478 17.5216,-0.70552 0.76469,-0.39131 1.4891,-1.10307 1.68333,-1.65389 0.0673,-0.1909 -0.0541,-0.56187 -0.27619,-0.84346 -0.80719,-1.02371 -10.59802,-9.74845 -12.90316,-11.49819 l -1.06522,-0.80856 -9.36838,0.12878 c -5.15261,0.0708 -10.53077,0.18338 -11.95146,0.25013 l -2.58308,0.12136 v 7.68435 7.68436 l 6.33107,-0.12903 c 3.48209,-0.071 9.15726,-0.17462 12.61149,-0.23033 z"
       id="path1" /><path
       style="display:inline;fill:none;fill-rule:evenodd;stroke:#000000;stroke-width:0.287116px;stroke-linecap:butt;stroke-linejoin:miter;stroke-opacity:1"
       d="m 193.34794,188.79315 0.53017,7.30541"
       id="path2"
       inkscape:connector-type="polyline"
       inkscape:connector-curvature="0" /><path
       style="display:inline;fill:none;fill-rule:evenodd;stroke:#000000;stroke-width:0.264583px;stroke-linecap:butt;stroke-linejoin:miter;stroke-opacity:1"
       d="M 80.034379,192.82897 78.474207,201.339"
       id="path3"
       inkscape:connector-type="polyline"
       inkscape:connector-curvature="0" /></g></svg>
