<?xml version="1.0" encoding="UTF-8" standalone="no"?>
<!-- Created with Inkscape (http://www.inkscape.org/) -->

<svg
   width="210mm"
   height="297mm"
   viewBox="0 0 210 297"
   version="1.1"
   id="svg1"
   xml:space="preserve"
   inkscape:version="1.3.1 (91b66b0783, 2023-11-16)"
   sodipodi:docname="kuca.svg"
   xmlns:inkscape="http://www.inkscape.org/namespaces/inkscape"
   xmlns:sodipodi="http://sodipodi.sourceforge.net/DTD/sodipodi-0.dtd"
   xmlns="http://www.w3.org/2000/svg"
   xmlns:svg="http://www.w3.org/2000/svg"><sodipodi:namedview
     id="namedview1"
     pagecolor="#ffffff"
     bordercolor="#000000"
     borderopacity="0.25"
     inkscape:showpageshadow="2"
     inkscape:pageopacity="0.0"
     inkscape:pagecheckerboard="0"
     inkscape:deskcolor="#d1d1d1"
     inkscape:document-units="mm"
     inkscape:zoom="0.93272306"
     inkscape:cx="396.68795"
     inkscape:cy="561.25984"
     inkscape:window-width="2400"
     inkscape:window-height="1261"
     inkscape:window-x="-9"
     inkscape:window-y="172"
     inkscape:window-maximized="1"
     inkscape:current-layer="layer1" /><defs
     id="defs1" /><g
     inkscape:label="Sloj 1"
     inkscape:groupmode="layer"
     id="layer1"><path
       style="fill:#000000"
       d="m 86.389328,165.74479 c 0,-1.05833 0,-1.05833 3.71247,-1.05833 2.72607,0 3.7461,-0.0879 3.83906,-0.33073 0.0696,-0.1819 0.0957,-6.73931 0.0578,-14.57202 -0.0688,-14.24129 -0.0688,-14.24129 -3.58317,-11.18889 -1.93292,1.67881 -3.62957,3.12356 -3.77031,3.21055 -0.16223,0.10026 -0.25036,-2.14771 -0.24078,-6.14132 0.0151,-6.29947 0.0151,-6.29947 4.89479,-10.50838 4.87968,-4.20891 4.87968,-4.20891 4.87968,-13.29531 0,-9.0864 0,-9.0864 4.365622,-9.0864 4.36563,0 4.36563,0 4.36563,5.15937 0,2.83766 0.0628,5.15938 0.1396,5.15938 0.0768,0 3.41707,-2.8575 7.42287,-6.35 4.0058,-3.4925 7.39223,-6.35 7.5254,-6.35 0.13317,0 2.60199,2.05383 5.48627,4.56406 2.88428,2.51024 10.38878,9.0177 16.67667,14.46104 11.43252,9.89698 11.43252,9.89698 11.43252,16.21007 0,6.31308 0,6.31308 -3.57978,3.19989 -1.96889,-1.71225 -3.69631,-3.15322 -3.83873,-3.20214 -0.16735,-0.0575 -0.23474,5.04333 -0.19053,14.41979 0.0684,14.50874 0.0684,14.50874 3.83873,14.58215 3.77031,0.0734 3.77031,0.0734 3.77031,1.12448 0,1.05107 0,1.05107 -33.60208,1.05107 -33.602092,0 -33.602092,0 -33.602092,-1.05833 z m 21.695832,-13.09688 c 0,-12.03854 0,-12.03854 11.90355,-12.03854 11.90356,0 11.90356,0 11.9724,11.9724 0.0688,11.97239 0.0688,11.97239 5.95792,12.04361 5.88908,0.0712 5.88908,0.0712 5.82083,-15.59904 -0.0682,-15.67026 -0.0682,-15.67026 -3.13334,-18.32747 -1.68581,-1.46146 -7.0123,-6.08551 -11.83665,-10.27567 -8.77155,-7.61846 -8.77155,-7.61846 -20.68125,2.76755 -11.909712,10.38602 -11.909712,10.38602 -11.909712,25.94086 0,15.55485 0,15.55485 5.953122,15.55485 5.95313,0 5.95313,0 5.95313,-12.03855 z m 6.40017,-25.99531 c 0.0797,-0.96309 0.11509,-0.99457 1.2066,-1.07354 1.12448,-0.0814 1.12448,-0.0814 1.12448,0.99218 0,1.07355 0,1.07355 -1.2066,1.07355 -1.2066,0 -1.2066,0 -1.12448,-0.99219 z m 4.44775,-0.0661 c 0,-1.05834 0,-1.05834 1.05833,-1.05834 1.05833,0 1.05833,0 1.05833,1.05834 0,1.05833 0,1.05833 -1.05833,1.05833 -1.05833,0 -1.05833,0 -1.05833,-1.05833 z m 4.23333,0 c 0,-1.08876 0,-1.08876 1.12448,-1.0074 1.09323,0.0791 1.12448,0.10709 1.12448,1.0074 0,0.90031 -0.0312,0.9283 -1.12448,1.0074 -1.12448,0.0814 -1.12448,0.0814 -1.12448,-1.0074 z m -4.23333,27.25208 c 0,-10.84792 0,-10.84792 -4.36563,-10.84792 -4.36563,0 -4.36563,0 -4.36563,10.67153 0,5.86934 0.0794,10.7509 0.17639,10.84792 0.097,0.097 2.06155,0.17639 4.36563,0.17639 4.18924,0 4.18924,0 4.18924,-10.84792 z m 10.78473,-0.0661 c 0.0691,-10.78177 0.0691,-10.78177 -4.29947,-10.78177 -4.3686,0 -4.3686,0 -4.3686,10.67153 0,5.86934 0.0823,10.75381 0.18285,10.85438 0.10057,0.10057 2.03534,0.15018 4.29948,0.11024 4.11663,-0.0726 4.11663,-0.0726 4.18574,-10.85438 z M 91.889768,134.44286 c 11.973932,-10.53796 27.866642,-24.26057 28.097162,-24.26057 0.15247,0 2.5078,1.93192 5.23408,4.29316 2.72627,2.36124 9.48123,8.21102 15.01102,12.99951 5.5298,4.78849 10.32206,8.94951 10.64948,9.24671 0.59531,0.54036 0.59531,0.54036 0.59531,-2.91205 0,-3.45241 0,-3.45241 -12.62339,-14.39977 -18.2652,-15.84008 -18.57763,-16.10672 -18.87256,-16.10672 -0.14793,0 -3.44274,2.7682 -7.32179,6.15156 -13.652792,11.90814 -20.072532,17.49368 -22.093012,19.22219 -2.04096,1.74604 -2.04096,1.74604 -2.05052,5.11947 -0.005,1.85539 0.0546,3.37344 0.13307,3.37344 0.0785,0 1.53696,-1.22712 3.24115,-2.72693 z m 8.985492,-17.60811 c 1.65365,-1.42541 1.65365,-1.42541 1.65365,-6.68477 0,-5.25935 0,-5.25935 -2.11667,-5.25935 -2.116662,0 -2.116662,0 -2.116662,7.04385 0,6.66884 0.0247,7.02474 0.46302,6.68477 0.25466,-0.1975 1.20716,-1.00053 2.116662,-1.7845 z"
       id="path1" /></g></svg>
